<mxfile host="app.diagrams.net" modified="2024-06-05T14:46:41.978Z" agent="Mozilla/5.0 (Windows NT 10.0; Win64; x64) AppleWebKit/537.36 (KHTML, like Gecko) Chrome/125.0.0.0 Safari/537.36" etag="ddJp9uGfor3zfDHANp1q" version="24.4.14" type="device">
  <diagram name="PÃ¡gina-1" id="EExrYYnSQOxe6s88PkUt">
    <mxGraphModel dx="1912" dy="1029" grid="1" gridSize="10" guides="1" tooltips="1" connect="1" arrows="1" fold="1" page="1" pageScale="1" pageWidth="3300" pageHeight="4681" math="0" shadow="0">
      <root>
        <mxCell id="0" />
        <mxCell id="1" parent="0" />
        <mxCell id="9YLRcOosvr0aKqjTtZsJ-2" value="Adicional" style="swimlane;fontStyle=1;align=center;verticalAlign=top;childLayout=stackLayout;horizontal=1;startSize=26;horizontalStack=0;resizeParent=1;resizeParentMax=0;resizeLast=0;collapsible=1;marginBottom=0;whiteSpace=wrap;html=1;" parent="1" vertex="1">
          <mxGeometry x="2550" y="143" width="160" height="34" as="geometry" />
        </mxCell>
        <mxCell id="9YLRcOosvr0aKqjTtZsJ-4" value="" style="line;strokeWidth=1;fillColor=none;align=left;verticalAlign=middle;spacingTop=-1;spacingLeft=3;spacingRight=3;rotatable=0;labelPosition=right;points=[];portConstraint=eastwest;strokeColor=inherit;" parent="9YLRcOosvr0aKqjTtZsJ-2" vertex="1">
          <mxGeometry y="26" width="160" height="8" as="geometry" />
        </mxCell>
        <mxCell id="9YLRcOosvr0aKqjTtZsJ-6" value="Bebida&lt;div&gt;&lt;br&gt;&lt;/div&gt;" style="swimlane;fontStyle=1;align=center;verticalAlign=top;childLayout=stackLayout;horizontal=1;startSize=26;horizontalStack=0;resizeParent=1;resizeParentMax=0;resizeLast=0;collapsible=1;marginBottom=0;whiteSpace=wrap;html=1;" parent="1" vertex="1">
          <mxGeometry x="2550" y="223" width="160" height="34" as="geometry" />
        </mxCell>
        <mxCell id="9YLRcOosvr0aKqjTtZsJ-8" value="" style="line;strokeWidth=1;fillColor=none;align=left;verticalAlign=middle;spacingTop=-1;spacingLeft=3;spacingRight=3;rotatable=0;labelPosition=right;points=[];portConstraint=eastwest;strokeColor=inherit;" parent="9YLRcOosvr0aKqjTtZsJ-6" vertex="1">
          <mxGeometry y="26" width="160" height="8" as="geometry" />
        </mxCell>
        <mxCell id="9YLRcOosvr0aKqjTtZsJ-10" value="Combo&lt;div&gt;&lt;br&gt;&lt;/div&gt;" style="swimlane;fontStyle=1;align=center;verticalAlign=top;childLayout=stackLayout;horizontal=1;startSize=26;horizontalStack=0;resizeParent=1;resizeParentMax=0;resizeLast=0;collapsible=1;marginBottom=0;whiteSpace=wrap;html=1;" parent="1" vertex="1">
          <mxGeometry x="2550" y="363" width="160" height="200" as="geometry" />
        </mxCell>
        <mxCell id="9YLRcOosvr0aKqjTtZsJ-11" value="+ desconto : double&lt;div&gt;+ itens : list&lt;/div&gt;&lt;div&gt;&lt;br&gt;&lt;/div&gt;" style="text;strokeColor=none;fillColor=none;align=left;verticalAlign=top;spacingLeft=4;spacingRight=4;overflow=hidden;rotatable=0;points=[[0,0.5],[1,0.5]];portConstraint=eastwest;whiteSpace=wrap;html=1;" parent="9YLRcOosvr0aKqjTtZsJ-10" vertex="1">
          <mxGeometry y="26" width="160" height="44" as="geometry" />
        </mxCell>
        <mxCell id="9YLRcOosvr0aKqjTtZsJ-12" value="" style="line;strokeWidth=1;fillColor=none;align=left;verticalAlign=middle;spacingTop=-1;spacingLeft=3;spacingRight=3;rotatable=0;labelPosition=right;points=[];portConstraint=eastwest;strokeColor=inherit;" parent="9YLRcOosvr0aKqjTtZsJ-10" vertex="1">
          <mxGeometry y="70" width="160" height="8" as="geometry" />
        </mxCell>
        <mxCell id="9YLRcOosvr0aKqjTtZsJ-13" value="+ adicionarItem(produto: Produto, quantidade: int) : void&lt;div&gt;+ recalcularPreco() : void&lt;/div&gt;&lt;div&gt;+ toString(): String&lt;/div&gt;" style="text;strokeColor=none;fillColor=none;align=left;verticalAlign=top;spacingLeft=4;spacingRight=4;overflow=hidden;rotatable=0;points=[[0,0.5],[1,0.5]];portConstraint=eastwest;whiteSpace=wrap;html=1;" parent="9YLRcOosvr0aKqjTtZsJ-10" vertex="1">
          <mxGeometry y="78" width="160" height="122" as="geometry" />
        </mxCell>
        <mxCell id="9YLRcOosvr0aKqjTtZsJ-14" value="Estoque&lt;div&gt;&lt;br&gt;&lt;/div&gt;" style="swimlane;fontStyle=1;align=center;verticalAlign=top;childLayout=stackLayout;horizontal=1;startSize=26;horizontalStack=0;resizeParent=1;resizeParentMax=0;resizeLast=0;collapsible=1;marginBottom=0;whiteSpace=wrap;html=1;" parent="1" vertex="1">
          <mxGeometry x="2050" y="90" width="160" height="160" as="geometry" />
        </mxCell>
        <mxCell id="9YLRcOosvr0aKqjTtZsJ-15" value="+ instancia : Estoque&lt;div&gt;+ produtos : Map&lt;/div&gt;" style="text;strokeColor=none;fillColor=none;align=left;verticalAlign=top;spacingLeft=4;spacingRight=4;overflow=hidden;rotatable=0;points=[[0,0.5],[1,0.5]];portConstraint=eastwest;whiteSpace=wrap;html=1;" parent="9YLRcOosvr0aKqjTtZsJ-14" vertex="1">
          <mxGeometry y="26" width="160" height="74" as="geometry" />
        </mxCell>
        <mxCell id="9YLRcOosvr0aKqjTtZsJ-16" value="" style="line;strokeWidth=1;fillColor=none;align=left;verticalAlign=middle;spacingTop=-1;spacingLeft=3;spacingRight=3;rotatable=0;labelPosition=right;points=[];portConstraint=eastwest;strokeColor=inherit;" parent="9YLRcOosvr0aKqjTtZsJ-14" vertex="1">
          <mxGeometry y="100" width="160" height="8" as="geometry" />
        </mxCell>
        <mxCell id="9YLRcOosvr0aKqjTtZsJ-17" value="&lt;div&gt;+ adicionarProduto(produto: Produto, quantidade: int) : void&lt;/div&gt;" style="text;strokeColor=none;fillColor=none;align=left;verticalAlign=top;spacingLeft=4;spacingRight=4;overflow=hidden;rotatable=0;points=[[0,0.5],[1,0.5]];portConstraint=eastwest;whiteSpace=wrap;html=1;" parent="9YLRcOosvr0aKqjTtZsJ-14" vertex="1">
          <mxGeometry y="108" width="160" height="52" as="geometry" />
        </mxCell>
        <mxCell id="9YLRcOosvr0aKqjTtZsJ-18" value="Fornecedor&lt;div&gt;&lt;br&gt;&lt;/div&gt;" style="swimlane;fontStyle=1;align=center;verticalAlign=top;childLayout=stackLayout;horizontal=1;startSize=26;horizontalStack=0;resizeParent=1;resizeParentMax=0;resizeLast=0;collapsible=1;marginBottom=0;whiteSpace=wrap;html=1;" parent="1" vertex="1">
          <mxGeometry x="2550" y="610" width="160" height="110" as="geometry" />
        </mxCell>
        <mxCell id="9YLRcOosvr0aKqjTtZsJ-19" value="+ nome : String&lt;div&gt;+ contato : String&lt;/div&gt;" style="text;strokeColor=none;fillColor=none;align=left;verticalAlign=top;spacingLeft=4;spacingRight=4;overflow=hidden;rotatable=0;points=[[0,0.5],[1,0.5]];portConstraint=eastwest;whiteSpace=wrap;html=1;" parent="9YLRcOosvr0aKqjTtZsJ-18" vertex="1">
          <mxGeometry y="26" width="160" height="44" as="geometry" />
        </mxCell>
        <mxCell id="9YLRcOosvr0aKqjTtZsJ-20" value="" style="line;strokeWidth=1;fillColor=none;align=left;verticalAlign=middle;spacingTop=-1;spacingLeft=3;spacingRight=3;rotatable=0;labelPosition=right;points=[];portConstraint=eastwest;strokeColor=inherit;" parent="9YLRcOosvr0aKqjTtZsJ-18" vertex="1">
          <mxGeometry y="70" width="160" height="8" as="geometry" />
        </mxCell>
        <mxCell id="9YLRcOosvr0aKqjTtZsJ-21" value="+ toString() : String" style="text;strokeColor=none;fillColor=none;align=left;verticalAlign=top;spacingLeft=4;spacingRight=4;overflow=hidden;rotatable=0;points=[[0,0.5],[1,0.5]];portConstraint=eastwest;whiteSpace=wrap;html=1;" parent="9YLRcOosvr0aKqjTtZsJ-18" vertex="1">
          <mxGeometry y="78" width="160" height="32" as="geometry" />
        </mxCell>
        <mxCell id="9YLRcOosvr0aKqjTtZsJ-22" value="ItemCombo&lt;div&gt;&lt;br&gt;&lt;/div&gt;" style="swimlane;fontStyle=1;align=center;verticalAlign=top;childLayout=stackLayout;horizontal=1;startSize=26;horizontalStack=0;resizeParent=1;resizeParentMax=0;resizeLast=0;collapsible=1;marginBottom=0;whiteSpace=wrap;html=1;" parent="1" vertex="1">
          <mxGeometry x="2320" y="433" width="160" height="78" as="geometry" />
        </mxCell>
        <mxCell id="9YLRcOosvr0aKqjTtZsJ-23" value="+ produto : Produto&lt;div&gt;+ quantidade : Int&lt;/div&gt;" style="text;strokeColor=none;fillColor=none;align=left;verticalAlign=top;spacingLeft=4;spacingRight=4;overflow=hidden;rotatable=0;points=[[0,0.5],[1,0.5]];portConstraint=eastwest;whiteSpace=wrap;html=1;" parent="9YLRcOosvr0aKqjTtZsJ-22" vertex="1">
          <mxGeometry y="26" width="160" height="44" as="geometry" />
        </mxCell>
        <mxCell id="9YLRcOosvr0aKqjTtZsJ-24" value="" style="line;strokeWidth=1;fillColor=none;align=left;verticalAlign=middle;spacingTop=-1;spacingLeft=3;spacingRight=3;rotatable=0;labelPosition=right;points=[];portConstraint=eastwest;strokeColor=inherit;" parent="9YLRcOosvr0aKqjTtZsJ-22" vertex="1">
          <mxGeometry y="70" width="160" height="8" as="geometry" />
        </mxCell>
        <mxCell id="9YLRcOosvr0aKqjTtZsJ-26" value="Lanche&lt;div&gt;&lt;br&gt;&lt;/div&gt;" style="swimlane;fontStyle=1;align=center;verticalAlign=top;childLayout=stackLayout;horizontal=1;startSize=26;horizontalStack=0;resizeParent=1;resizeParentMax=0;resizeLast=0;collapsible=1;marginBottom=0;whiteSpace=wrap;html=1;" parent="1" vertex="1">
          <mxGeometry x="2310" y="143" width="160" height="34" as="geometry" />
        </mxCell>
        <mxCell id="9YLRcOosvr0aKqjTtZsJ-28" value="" style="line;strokeWidth=1;fillColor=none;align=left;verticalAlign=middle;spacingTop=-1;spacingLeft=3;spacingRight=3;rotatable=0;labelPosition=right;points=[];portConstraint=eastwest;strokeColor=inherit;" parent="9YLRcOosvr0aKqjTtZsJ-26" vertex="1">
          <mxGeometry y="26" width="160" height="8" as="geometry" />
        </mxCell>
        <mxCell id="9YLRcOosvr0aKqjTtZsJ-30" value="Pizza&lt;div&gt;&lt;br&gt;&lt;/div&gt;" style="swimlane;fontStyle=1;align=center;verticalAlign=top;childLayout=stackLayout;horizontal=1;startSize=26;horizontalStack=0;resizeParent=1;resizeParentMax=0;resizeLast=0;collapsible=1;marginBottom=0;whiteSpace=wrap;html=1;" parent="1" vertex="1">
          <mxGeometry x="2550" y="287" width="160" height="34" as="geometry" />
        </mxCell>
        <mxCell id="9YLRcOosvr0aKqjTtZsJ-32" value="" style="line;strokeWidth=1;fillColor=none;align=left;verticalAlign=middle;spacingTop=-1;spacingLeft=3;spacingRight=3;rotatable=0;labelPosition=right;points=[];portConstraint=eastwest;strokeColor=inherit;" parent="9YLRcOosvr0aKqjTtZsJ-30" vertex="1">
          <mxGeometry y="26" width="160" height="8" as="geometry" />
        </mxCell>
        <mxCell id="9YLRcOosvr0aKqjTtZsJ-34" value="Produto&lt;div&gt;&lt;br&gt;&lt;/div&gt;" style="swimlane;fontStyle=1;align=center;verticalAlign=top;childLayout=stackLayout;horizontal=1;startSize=26;horizontalStack=0;resizeParent=1;resizeParentMax=0;resizeLast=0;collapsible=1;marginBottom=0;whiteSpace=wrap;html=1;" parent="1" vertex="1">
          <mxGeometry x="2310" y="223" width="160" height="140" as="geometry" />
        </mxCell>
        <mxCell id="9YLRcOosvr0aKqjTtZsJ-35" value="+ nextId : int&lt;div&gt;+ id : int&lt;/div&gt;&lt;div&gt;+ nome : String&lt;/div&gt;&lt;div&gt;+ preco : double&lt;/div&gt;" style="text;strokeColor=none;fillColor=none;align=left;verticalAlign=top;spacingLeft=4;spacingRight=4;overflow=hidden;rotatable=0;points=[[0,0.5],[1,0.5]];portConstraint=eastwest;whiteSpace=wrap;html=1;" parent="9YLRcOosvr0aKqjTtZsJ-34" vertex="1">
          <mxGeometry y="26" width="160" height="74" as="geometry" />
        </mxCell>
        <mxCell id="9YLRcOosvr0aKqjTtZsJ-36" value="" style="line;strokeWidth=1;fillColor=none;align=left;verticalAlign=middle;spacingTop=-1;spacingLeft=3;spacingRight=3;rotatable=0;labelPosition=right;points=[];portConstraint=eastwest;strokeColor=inherit;" parent="9YLRcOosvr0aKqjTtZsJ-34" vertex="1">
          <mxGeometry y="100" width="160" height="8" as="geometry" />
        </mxCell>
        <mxCell id="9YLRcOosvr0aKqjTtZsJ-37" value="&lt;div&gt;+ toString() : String&lt;/div&gt;" style="text;strokeColor=none;fillColor=none;align=left;verticalAlign=top;spacingLeft=4;spacingRight=4;overflow=hidden;rotatable=0;points=[[0,0.5],[1,0.5]];portConstraint=eastwest;whiteSpace=wrap;html=1;" parent="9YLRcOosvr0aKqjTtZsJ-34" vertex="1">
          <mxGeometry y="108" width="160" height="32" as="geometry" />
        </mxCell>
        <mxCell id="9YLRcOosvr0aKqjTtZsJ-38" value="Usuario&lt;div&gt;&lt;br&gt;&lt;/div&gt;" style="swimlane;fontStyle=1;align=center;verticalAlign=top;childLayout=stackLayout;horizontal=1;startSize=26;horizontalStack=0;resizeParent=1;resizeParentMax=0;resizeLast=0;collapsible=1;marginBottom=0;whiteSpace=wrap;html=1;" parent="1" vertex="1">
          <mxGeometry x="2050" y="283" width="170" height="240" as="geometry" />
        </mxCell>
        <mxCell id="9YLRcOosvr0aKqjTtZsJ-39" value="+ nextId : int&lt;div&gt;+ id : int&lt;/div&gt;&lt;div&gt;+ nomeDeUsuario : String&lt;/div&gt;&lt;div&gt;+ senha : String&lt;/div&gt;&lt;div&gt;+ isAdmin : boolean&lt;/div&gt;" style="text;strokeColor=none;fillColor=none;align=left;verticalAlign=top;spacingLeft=4;spacingRight=4;overflow=hidden;rotatable=0;points=[[0,0.5],[1,0.5]];portConstraint=eastwest;whiteSpace=wrap;html=1;" parent="9YLRcOosvr0aKqjTtZsJ-38" vertex="1">
          <mxGeometry y="26" width="170" height="104" as="geometry" />
        </mxCell>
        <mxCell id="9YLRcOosvr0aKqjTtZsJ-40" value="" style="line;strokeWidth=1;fillColor=none;align=left;verticalAlign=middle;spacingTop=-1;spacingLeft=3;spacingRight=3;rotatable=0;labelPosition=right;points=[];portConstraint=eastwest;strokeColor=inherit;" parent="9YLRcOosvr0aKqjTtZsJ-38" vertex="1">
          <mxGeometry y="130" width="170" height="8" as="geometry" />
        </mxCell>
        <mxCell id="9YLRcOosvr0aKqjTtZsJ-41" value="+ toString() : String&lt;div&gt;+ fromString(dadosDoUsuario : String) : Usuario&lt;/div&gt;" style="text;strokeColor=none;fillColor=none;align=left;verticalAlign=top;spacingLeft=4;spacingRight=4;overflow=hidden;rotatable=0;points=[[0,0.5],[1,0.5]];portConstraint=eastwest;whiteSpace=wrap;html=1;" parent="9YLRcOosvr0aKqjTtZsJ-38" vertex="1">
          <mxGeometry y="138" width="170" height="102" as="geometry" />
        </mxCell>
        <mxCell id="FjhUDqmSHluBk98gDx1N-1" value="GerenciadorDeCombos" style="swimlane;fontStyle=1;align=center;verticalAlign=top;childLayout=stackLayout;horizontal=1;startSize=26;horizontalStack=0;resizeParent=1;resizeParentMax=0;resizeLast=0;collapsible=1;marginBottom=0;whiteSpace=wrap;html=1;" parent="1" vertex="1">
          <mxGeometry x="900" y="420" width="160" height="170" as="geometry" />
        </mxCell>
        <mxCell id="FjhUDqmSHluBk98gDx1N-2" value="+ nome : String&lt;div&gt;+ desconto : double&lt;/div&gt;&lt;div&gt;+ itens : List&lt;/div&gt;" style="text;strokeColor=none;fillColor=none;align=left;verticalAlign=top;spacingLeft=4;spacingRight=4;overflow=hidden;rotatable=0;points=[[0,0.5],[1,0.5]];portConstraint=eastwest;whiteSpace=wrap;html=1;" parent="FjhUDqmSHluBk98gDx1N-1" vertex="1">
          <mxGeometry y="26" width="160" height="64" as="geometry" />
        </mxCell>
        <mxCell id="FjhUDqmSHluBk98gDx1N-3" value="" style="line;strokeWidth=1;fillColor=none;align=left;verticalAlign=middle;spacingTop=-1;spacingLeft=3;spacingRight=3;rotatable=0;labelPosition=right;points=[];portConstraint=eastwest;strokeColor=inherit;" parent="FjhUDqmSHluBk98gDx1N-1" vertex="1">
          <mxGeometry y="90" width="160" height="8" as="geometry" />
        </mxCell>
        <mxCell id="FjhUDqmSHluBk98gDx1N-4" value="+ adicionarItem(produto : Produto, quantidade : int) : GerenciadorDeCombos&lt;div&gt;+ build() : Combo&lt;/div&gt;" style="text;strokeColor=none;fillColor=none;align=left;verticalAlign=top;spacingLeft=4;spacingRight=4;overflow=hidden;rotatable=0;points=[[0,0.5],[1,0.5]];portConstraint=eastwest;whiteSpace=wrap;html=1;" parent="FjhUDqmSHluBk98gDx1N-1" vertex="1">
          <mxGeometry y="98" width="160" height="72" as="geometry" />
        </mxCell>
        <mxCell id="FjhUDqmSHluBk98gDx1N-5" value="GerenciadorDeEstoque" style="swimlane;fontStyle=1;align=center;verticalAlign=top;childLayout=stackLayout;horizontal=1;startSize=26;horizontalStack=0;resizeParent=1;resizeParentMax=0;resizeLast=0;collapsible=1;marginBottom=0;whiteSpace=wrap;html=1;" parent="1" vertex="1">
          <mxGeometry x="1090" y="440" width="160" height="150" as="geometry" />
        </mxCell>
        <mxCell id="FjhUDqmSHluBk98gDx1N-6" value="+ instancia : Estoque&lt;div&gt;+ produtos : Map&lt;/div&gt;" style="text;strokeColor=none;fillColor=none;align=left;verticalAlign=top;spacingLeft=4;spacingRight=4;overflow=hidden;rotatable=0;points=[[0,0.5],[1,0.5]];portConstraint=eastwest;whiteSpace=wrap;html=1;" parent="FjhUDqmSHluBk98gDx1N-5" vertex="1">
          <mxGeometry y="26" width="160" height="64" as="geometry" />
        </mxCell>
        <mxCell id="FjhUDqmSHluBk98gDx1N-7" value="" style="line;strokeWidth=1;fillColor=none;align=left;verticalAlign=middle;spacingTop=-1;spacingLeft=3;spacingRight=3;rotatable=0;labelPosition=right;points=[];portConstraint=eastwest;strokeColor=inherit;" parent="FjhUDqmSHluBk98gDx1N-5" vertex="1">
          <mxGeometry y="90" width="160" height="8" as="geometry" />
        </mxCell>
        <mxCell id="FjhUDqmSHluBk98gDx1N-8" value="+ adicionarProduto(produto : Produto, quantidade : int) : void" style="text;strokeColor=none;fillColor=none;align=left;verticalAlign=top;spacingLeft=4;spacingRight=4;overflow=hidden;rotatable=0;points=[[0,0.5],[1,0.5]];portConstraint=eastwest;whiteSpace=wrap;html=1;" parent="FjhUDqmSHluBk98gDx1N-5" vertex="1">
          <mxGeometry y="98" width="160" height="52" as="geometry" />
        </mxCell>
        <mxCell id="FjhUDqmSHluBk98gDx1N-9" value="GerenciadorDeProdutos&lt;div&gt;&lt;br&gt;&lt;/div&gt;" style="swimlane;fontStyle=1;align=center;verticalAlign=top;childLayout=stackLayout;horizontal=1;startSize=26;horizontalStack=0;resizeParent=1;resizeParentMax=0;resizeLast=0;collapsible=1;marginBottom=0;whiteSpace=wrap;html=1;" parent="1" vertex="1">
          <mxGeometry x="900" y="287" width="160" height="96" as="geometry" />
        </mxCell>
        <mxCell id="FjhUDqmSHluBk98gDx1N-11" value="" style="line;strokeWidth=1;fillColor=none;align=left;verticalAlign=middle;spacingTop=-1;spacingLeft=3;spacingRight=3;rotatable=0;labelPosition=right;points=[];portConstraint=eastwest;strokeColor=inherit;" parent="FjhUDqmSHluBk98gDx1N-9" vertex="1">
          <mxGeometry y="26" width="160" height="8" as="geometry" />
        </mxCell>
        <mxCell id="FjhUDqmSHluBk98gDx1N-12" value="+ criarProduto (tipoProduto : int, nome : String, preco : double) : Produto" style="text;strokeColor=none;fillColor=none;align=left;verticalAlign=top;spacingLeft=4;spacingRight=4;overflow=hidden;rotatable=0;points=[[0,0.5],[1,0.5]];portConstraint=eastwest;whiteSpace=wrap;html=1;" parent="FjhUDqmSHluBk98gDx1N-9" vertex="1">
          <mxGeometry y="34" width="160" height="62" as="geometry" />
        </mxCell>
        <mxCell id="FjhUDqmSHluBk98gDx1N-13" value="GerenciadorDeUsuarios&lt;div&gt;&lt;br&gt;&lt;/div&gt;" style="swimlane;fontStyle=1;align=center;verticalAlign=top;childLayout=stackLayout;horizontal=1;startSize=26;horizontalStack=0;resizeParent=1;resizeParentMax=0;resizeLast=0;collapsible=1;marginBottom=0;whiteSpace=wrap;html=1;" parent="1" vertex="1">
          <mxGeometry x="1090" y="143" width="160" height="270" as="geometry" />
        </mxCell>
        <mxCell id="FjhUDqmSHluBk98gDx1N-14" value="+ usuarios : Map&lt;div&gt;+ instancia : GerenciadorDeUsuarios&lt;/div&gt;" style="text;strokeColor=none;fillColor=none;align=left;verticalAlign=top;spacingLeft=4;spacingRight=4;overflow=hidden;rotatable=0;points=[[0,0.5],[1,0.5]];portConstraint=eastwest;whiteSpace=wrap;html=1;" parent="FjhUDqmSHluBk98gDx1N-13" vertex="1">
          <mxGeometry y="26" width="160" height="64" as="geometry" />
        </mxCell>
        <mxCell id="FjhUDqmSHluBk98gDx1N-15" value="" style="line;strokeWidth=1;fillColor=none;align=left;verticalAlign=middle;spacingTop=-1;spacingLeft=3;spacingRight=3;rotatable=0;labelPosition=right;points=[];portConstraint=eastwest;strokeColor=inherit;" parent="FjhUDqmSHluBk98gDx1N-13" vertex="1">
          <mxGeometry y="90" width="160" height="8" as="geometry" />
        </mxCell>
        <mxCell id="FjhUDqmSHluBk98gDx1N-16" value="+ carregarUsuarios() : void&lt;div&gt;+ salvarUsuarios() : void&lt;/div&gt;&lt;div&gt;+ registrar(nomeDeUsuario : String, senha : String) : boolean&lt;/div&gt;&lt;div&gt;+ login(nomeDeUsuario : String, senha : String) : boolean&lt;/div&gt;&lt;div&gt;+ isAdmin(nomeDeUsuario : String) : boolean&lt;/div&gt;&lt;div&gt;+ modificarUsuarioParaAdmin(nomeDeUsuario : String) : boolean&lt;/div&gt;&lt;div&gt;&lt;br&gt;&lt;/div&gt;" style="text;strokeColor=none;fillColor=none;align=left;verticalAlign=top;spacingLeft=4;spacingRight=4;overflow=hidden;rotatable=0;points=[[0,0.5],[1,0.5]];portConstraint=eastwest;whiteSpace=wrap;html=1;" parent="FjhUDqmSHluBk98gDx1N-13" vertex="1">
          <mxGeometry y="98" width="160" height="172" as="geometry" />
        </mxCell>
        <mxCell id="FjhUDqmSHluBk98gDx1N-17" value="Menu" style="swimlane;fontStyle=1;align=center;verticalAlign=top;childLayout=stackLayout;horizontal=1;startSize=26;horizontalStack=0;resizeParent=1;resizeParentMax=0;resizeLast=0;collapsible=1;marginBottom=0;whiteSpace=wrap;html=1;" parent="1" vertex="1">
          <mxGeometry x="1580" y="387" width="160" height="86" as="geometry" />
        </mxCell>
        <mxCell id="FjhUDqmSHluBk98gDx1N-18" value="+ scanner : Scanner" style="text;strokeColor=none;fillColor=none;align=left;verticalAlign=top;spacingLeft=4;spacingRight=4;overflow=hidden;rotatable=0;points=[[0,0.5],[1,0.5]];portConstraint=eastwest;whiteSpace=wrap;html=1;" parent="FjhUDqmSHluBk98gDx1N-17" vertex="1">
          <mxGeometry y="26" width="160" height="26" as="geometry" />
        </mxCell>
        <mxCell id="FjhUDqmSHluBk98gDx1N-19" value="" style="line;strokeWidth=1;fillColor=none;align=left;verticalAlign=middle;spacingTop=-1;spacingLeft=3;spacingRight=3;rotatable=0;labelPosition=right;points=[];portConstraint=eastwest;strokeColor=inherit;" parent="FjhUDqmSHluBk98gDx1N-17" vertex="1">
          <mxGeometry y="52" width="160" height="8" as="geometry" />
        </mxCell>
        <mxCell id="FjhUDqmSHluBk98gDx1N-20" value="+ mostrarMenu() : void" style="text;strokeColor=none;fillColor=none;align=left;verticalAlign=top;spacingLeft=4;spacingRight=4;overflow=hidden;rotatable=0;points=[[0,0.5],[1,0.5]];portConstraint=eastwest;whiteSpace=wrap;html=1;" parent="FjhUDqmSHluBk98gDx1N-17" vertex="1">
          <mxGeometry y="60" width="160" height="26" as="geometry" />
        </mxCell>
        <mxCell id="FjhUDqmSHluBk98gDx1N-21" value="MenuAdmin" style="swimlane;fontStyle=1;align=center;verticalAlign=top;childLayout=stackLayout;horizontal=1;startSize=26;horizontalStack=0;resizeParent=1;resizeParentMax=0;resizeLast=0;collapsible=1;marginBottom=0;whiteSpace=wrap;html=1;" parent="1" vertex="1">
          <mxGeometry x="1580" y="153" width="160" height="130" as="geometry" />
        </mxCell>
        <mxCell id="FjhUDqmSHluBk98gDx1N-22" value="+ gerenciadorDeUsuarios : GerenciadorDeUsuarios&lt;div&gt;+ estoque : Estoque&lt;/div&gt;&lt;div&gt;+ usuarioAtual : Usuario&lt;/div&gt;" style="text;strokeColor=none;fillColor=none;align=left;verticalAlign=top;spacingLeft=4;spacingRight=4;overflow=hidden;rotatable=0;points=[[0,0.5],[1,0.5]];portConstraint=eastwest;whiteSpace=wrap;html=1;" parent="FjhUDqmSHluBk98gDx1N-21" vertex="1">
          <mxGeometry y="26" width="160" height="74" as="geometry" />
        </mxCell>
        <mxCell id="FjhUDqmSHluBk98gDx1N-23" value="" style="line;strokeWidth=1;fillColor=none;align=left;verticalAlign=middle;spacingTop=-1;spacingLeft=3;spacingRight=3;rotatable=0;labelPosition=right;points=[];portConstraint=eastwest;strokeColor=inherit;" parent="FjhUDqmSHluBk98gDx1N-21" vertex="1">
          <mxGeometry y="100" width="160" height="8" as="geometry" />
        </mxCell>
        <mxCell id="FjhUDqmSHluBk98gDx1N-24" value="+ mostrarMenu() : void" style="text;strokeColor=none;fillColor=none;align=left;verticalAlign=top;spacingLeft=4;spacingRight=4;overflow=hidden;rotatable=0;points=[[0,0.5],[1,0.5]];portConstraint=eastwest;whiteSpace=wrap;html=1;" parent="FjhUDqmSHluBk98gDx1N-21" vertex="1">
          <mxGeometry y="108" width="160" height="22" as="geometry" />
        </mxCell>
        <mxCell id="FjhUDqmSHluBk98gDx1N-25" value="MenuPrincipal" style="swimlane;fontStyle=1;align=center;verticalAlign=top;childLayout=stackLayout;horizontal=1;startSize=26;horizontalStack=0;resizeParent=1;resizeParentMax=0;resizeLast=0;collapsible=1;marginBottom=0;whiteSpace=wrap;html=1;" parent="1" vertex="1">
          <mxGeometry x="1380" y="321" width="160" height="150" as="geometry" />
        </mxCell>
        <mxCell id="FjhUDqmSHluBk98gDx1N-26" value="+ gerenciadorDeUsuarios : GerenciadorDeUsuarios&lt;div&gt;+ usuariosAtual : Usuario&lt;/div&gt;" style="text;strokeColor=none;fillColor=none;align=left;verticalAlign=top;spacingLeft=4;spacingRight=4;overflow=hidden;rotatable=0;points=[[0,0.5],[1,0.5]];portConstraint=eastwest;whiteSpace=wrap;html=1;" parent="FjhUDqmSHluBk98gDx1N-25" vertex="1">
          <mxGeometry y="26" width="160" height="84" as="geometry" />
        </mxCell>
        <mxCell id="FjhUDqmSHluBk98gDx1N-27" value="" style="line;strokeWidth=1;fillColor=none;align=left;verticalAlign=middle;spacingTop=-1;spacingLeft=3;spacingRight=3;rotatable=0;labelPosition=right;points=[];portConstraint=eastwest;strokeColor=inherit;" parent="FjhUDqmSHluBk98gDx1N-25" vertex="1">
          <mxGeometry y="110" width="160" height="8" as="geometry" />
        </mxCell>
        <mxCell id="FjhUDqmSHluBk98gDx1N-28" value="+ mostrarMenu() : void" style="text;strokeColor=none;fillColor=none;align=left;verticalAlign=top;spacingLeft=4;spacingRight=4;overflow=hidden;rotatable=0;points=[[0,0.5],[1,0.5]];portConstraint=eastwest;whiteSpace=wrap;html=1;" parent="FjhUDqmSHluBk98gDx1N-25" vertex="1">
          <mxGeometry y="118" width="160" height="32" as="geometry" />
        </mxCell>
        <mxCell id="FjhUDqmSHluBk98gDx1N-29" value="MenuUsuario" style="swimlane;fontStyle=1;align=center;verticalAlign=top;childLayout=stackLayout;horizontal=1;startSize=26;horizontalStack=0;resizeParent=1;resizeParentMax=0;resizeLast=0;collapsible=1;marginBottom=0;whiteSpace=wrap;html=1;" parent="1" vertex="1">
          <mxGeometry x="1790" y="283" width="160" height="190" as="geometry" />
        </mxCell>
        <mxCell id="FjhUDqmSHluBk98gDx1N-30" value="+ gerenciadorDeUsuarios : GerenciadorDeUsuarios&lt;div&gt;+ estoque : Estoque&lt;/div&gt;&lt;div&gt;+ usuarioAtual : Usuario&lt;/div&gt;&lt;div&gt;+ carrinhoAtual : Carrinho&lt;/div&gt;" style="text;strokeColor=none;fillColor=none;align=left;verticalAlign=top;spacingLeft=4;spacingRight=4;overflow=hidden;rotatable=0;points=[[0,0.5],[1,0.5]];portConstraint=eastwest;whiteSpace=wrap;html=1;" parent="FjhUDqmSHluBk98gDx1N-29" vertex="1">
          <mxGeometry y="26" width="160" height="94" as="geometry" />
        </mxCell>
        <mxCell id="FjhUDqmSHluBk98gDx1N-31" value="" style="line;strokeWidth=1;fillColor=none;align=left;verticalAlign=middle;spacingTop=-1;spacingLeft=3;spacingRight=3;rotatable=0;labelPosition=right;points=[];portConstraint=eastwest;strokeColor=inherit;" parent="FjhUDqmSHluBk98gDx1N-29" vertex="1">
          <mxGeometry y="120" width="160" height="8" as="geometry" />
        </mxCell>
        <mxCell id="FjhUDqmSHluBk98gDx1N-32" value="+ mostrarMenu() : void" style="text;strokeColor=none;fillColor=none;align=left;verticalAlign=top;spacingLeft=4;spacingRight=4;overflow=hidden;rotatable=0;points=[[0,0.5],[1,0.5]];portConstraint=eastwest;whiteSpace=wrap;html=1;" parent="FjhUDqmSHluBk98gDx1N-29" vertex="1">
          <mxGeometry y="128" width="160" height="62" as="geometry" />
        </mxCell>
        <mxCell id="FjhUDqmSHluBk98gDx1N-35" value="Carrinho" style="swimlane;fontStyle=1;align=center;verticalAlign=top;childLayout=stackLayout;horizontal=1;startSize=26;horizontalStack=0;resizeParent=1;resizeParentMax=0;resizeLast=0;collapsible=1;marginBottom=0;whiteSpace=wrap;html=1;" parent="1" vertex="1">
          <mxGeometry x="2050" y="563" width="160" height="150" as="geometry" />
        </mxCell>
        <mxCell id="FjhUDqmSHluBk98gDx1N-36" value="+ itens : List" style="text;strokeColor=none;fillColor=none;align=left;verticalAlign=top;spacingLeft=4;spacingRight=4;overflow=hidden;rotatable=0;points=[[0,0.5],[1,0.5]];portConstraint=eastwest;whiteSpace=wrap;html=1;" parent="FjhUDqmSHluBk98gDx1N-35" vertex="1">
          <mxGeometry y="26" width="160" height="26" as="geometry" />
        </mxCell>
        <mxCell id="FjhUDqmSHluBk98gDx1N-37" value="" style="line;strokeWidth=1;fillColor=none;align=left;verticalAlign=middle;spacingTop=-1;spacingLeft=3;spacingRight=3;rotatable=0;labelPosition=right;points=[];portConstraint=eastwest;strokeColor=inherit;" parent="FjhUDqmSHluBk98gDx1N-35" vertex="1">
          <mxGeometry y="52" width="160" height="8" as="geometry" />
        </mxCell>
        <mxCell id="FjhUDqmSHluBk98gDx1N-38" value="+ adicionarItem(produto : Produto) : void&lt;div&gt;+ removerItem(produto : Produto) : void&lt;/div&gt;&lt;div&gt;+ toString() : String&lt;/div&gt;" style="text;strokeColor=none;fillColor=none;align=left;verticalAlign=top;spacingLeft=4;spacingRight=4;overflow=hidden;rotatable=0;points=[[0,0.5],[1,0.5]];portConstraint=eastwest;whiteSpace=wrap;html=1;" parent="FjhUDqmSHluBk98gDx1N-35" vertex="1">
          <mxGeometry y="60" width="160" height="90" as="geometry" />
        </mxCell>
        <mxCell id="FjhUDqmSHluBk98gDx1N-39" value="Pedido" style="swimlane;fontStyle=1;align=center;verticalAlign=top;childLayout=stackLayout;horizontal=1;startSize=26;horizontalStack=0;resizeParent=1;resizeParentMax=0;resizeLast=0;collapsible=1;marginBottom=0;whiteSpace=wrap;html=1;" parent="1" vertex="1">
          <mxGeometry x="2320" y="573" width="160" height="130" as="geometry" />
        </mxCell>
        <mxCell id="FjhUDqmSHluBk98gDx1N-40" value="+ usuario : Usuario&lt;div&gt;+ carrinho : Carrinho&lt;/div&gt;&lt;div&gt;+ estado : EstadoPedido&lt;/div&gt;&lt;div&gt;+ data : Date&lt;/div&gt;" style="text;strokeColor=none;fillColor=none;align=left;verticalAlign=top;spacingLeft=4;spacingRight=4;overflow=hidden;rotatable=0;points=[[0,0.5],[1,0.5]];portConstraint=eastwest;whiteSpace=wrap;html=1;" parent="FjhUDqmSHluBk98gDx1N-39" vertex="1">
          <mxGeometry y="26" width="160" height="64" as="geometry" />
        </mxCell>
        <mxCell id="FjhUDqmSHluBk98gDx1N-41" value="" style="line;strokeWidth=1;fillColor=none;align=left;verticalAlign=middle;spacingTop=-1;spacingLeft=3;spacingRight=3;rotatable=0;labelPosition=right;points=[];portConstraint=eastwest;strokeColor=inherit;" parent="FjhUDqmSHluBk98gDx1N-39" vertex="1">
          <mxGeometry y="90" width="160" height="8" as="geometry" />
        </mxCell>
        <mxCell id="FjhUDqmSHluBk98gDx1N-42" value="+ toString() : String" style="text;strokeColor=none;fillColor=none;align=left;verticalAlign=top;spacingLeft=4;spacingRight=4;overflow=hidden;rotatable=0;points=[[0,0.5],[1,0.5]];portConstraint=eastwest;whiteSpace=wrap;html=1;" parent="FjhUDqmSHluBk98gDx1N-39" vertex="1">
          <mxGeometry y="98" width="160" height="32" as="geometry" />
        </mxCell>
        <mxCell id="FjhUDqmSHluBk98gDx1N-43" value="CartaoCredito" style="swimlane;fontStyle=1;align=center;verticalAlign=top;childLayout=stackLayout;horizontal=1;startSize=26;horizontalStack=0;resizeParent=1;resizeParentMax=0;resizeLast=0;collapsible=1;marginBottom=0;whiteSpace=wrap;html=1;" parent="1" vertex="1">
          <mxGeometry x="1405" y="660" width="160" height="90" as="geometry" />
        </mxCell>
        <mxCell id="FjhUDqmSHluBk98gDx1N-44" value="+ numeroCartao : String" style="text;strokeColor=none;fillColor=none;align=left;verticalAlign=top;spacingLeft=4;spacingRight=4;overflow=hidden;rotatable=0;points=[[0,0.5],[1,0.5]];portConstraint=eastwest;whiteSpace=wrap;html=1;" parent="FjhUDqmSHluBk98gDx1N-43" vertex="1">
          <mxGeometry y="26" width="160" height="24" as="geometry" />
        </mxCell>
        <mxCell id="FjhUDqmSHluBk98gDx1N-45" value="" style="line;strokeWidth=1;fillColor=none;align=left;verticalAlign=middle;spacingTop=-1;spacingLeft=3;spacingRight=3;rotatable=0;labelPosition=right;points=[];portConstraint=eastwest;strokeColor=inherit;" parent="FjhUDqmSHluBk98gDx1N-43" vertex="1">
          <mxGeometry y="50" width="160" height="8" as="geometry" />
        </mxCell>
        <mxCell id="FjhUDqmSHluBk98gDx1N-46" value="+ toString() : String" style="text;strokeColor=none;fillColor=none;align=left;verticalAlign=top;spacingLeft=4;spacingRight=4;overflow=hidden;rotatable=0;points=[[0,0.5],[1,0.5]];portConstraint=eastwest;whiteSpace=wrap;html=1;" parent="FjhUDqmSHluBk98gDx1N-43" vertex="1">
          <mxGeometry y="58" width="160" height="32" as="geometry" />
        </mxCell>
        <mxCell id="FjhUDqmSHluBk98gDx1N-51" value="CartaoDeb&lt;span style=&quot;background-color: initial;&quot;&gt;ito&lt;/span&gt;" style="swimlane;fontStyle=1;align=center;verticalAlign=top;childLayout=stackLayout;horizontal=1;startSize=26;horizontalStack=0;resizeParent=1;resizeParentMax=0;resizeLast=0;collapsible=1;marginBottom=0;whiteSpace=wrap;html=1;" parent="1" vertex="1">
          <mxGeometry x="1755" y="650" width="160" height="90" as="geometry" />
        </mxCell>
        <mxCell id="FjhUDqmSHluBk98gDx1N-52" value="+ numeroCartao : String" style="text;strokeColor=none;fillColor=none;align=left;verticalAlign=top;spacingLeft=4;spacingRight=4;overflow=hidden;rotatable=0;points=[[0,0.5],[1,0.5]];portConstraint=eastwest;whiteSpace=wrap;html=1;" parent="FjhUDqmSHluBk98gDx1N-51" vertex="1">
          <mxGeometry y="26" width="160" height="24" as="geometry" />
        </mxCell>
        <mxCell id="FjhUDqmSHluBk98gDx1N-53" value="" style="line;strokeWidth=1;fillColor=none;align=left;verticalAlign=middle;spacingTop=-1;spacingLeft=3;spacingRight=3;rotatable=0;labelPosition=right;points=[];portConstraint=eastwest;strokeColor=inherit;" parent="FjhUDqmSHluBk98gDx1N-51" vertex="1">
          <mxGeometry y="50" width="160" height="8" as="geometry" />
        </mxCell>
        <mxCell id="FjhUDqmSHluBk98gDx1N-54" value="+ toString() : String" style="text;strokeColor=none;fillColor=none;align=left;verticalAlign=top;spacingLeft=4;spacingRight=4;overflow=hidden;rotatable=0;points=[[0,0.5],[1,0.5]];portConstraint=eastwest;whiteSpace=wrap;html=1;" parent="FjhUDqmSHluBk98gDx1N-51" vertex="1">
          <mxGeometry y="58" width="160" height="32" as="geometry" />
        </mxCell>
        <mxCell id="FjhUDqmSHluBk98gDx1N-67" value="Wallet" style="swimlane;fontStyle=1;align=center;verticalAlign=top;childLayout=stackLayout;horizontal=1;startSize=26;horizontalStack=0;resizeParent=1;resizeParentMax=0;resizeLast=0;collapsible=1;marginBottom=0;whiteSpace=wrap;html=1;" parent="1" vertex="1">
          <mxGeometry x="1405" y="900" width="160" height="90" as="geometry" />
        </mxCell>
        <mxCell id="FjhUDqmSHluBk98gDx1N-68" value="+ chavePix : String" style="text;strokeColor=none;fillColor=none;align=left;verticalAlign=top;spacingLeft=4;spacingRight=4;overflow=hidden;rotatable=0;points=[[0,0.5],[1,0.5]];portConstraint=eastwest;whiteSpace=wrap;html=1;" parent="FjhUDqmSHluBk98gDx1N-67" vertex="1">
          <mxGeometry y="26" width="160" height="24" as="geometry" />
        </mxCell>
        <mxCell id="FjhUDqmSHluBk98gDx1N-69" value="" style="line;strokeWidth=1;fillColor=none;align=left;verticalAlign=middle;spacingTop=-1;spacingLeft=3;spacingRight=3;rotatable=0;labelPosition=right;points=[];portConstraint=eastwest;strokeColor=inherit;" parent="FjhUDqmSHluBk98gDx1N-67" vertex="1">
          <mxGeometry y="50" width="160" height="8" as="geometry" />
        </mxCell>
        <mxCell id="FjhUDqmSHluBk98gDx1N-70" value="+ toString() : String" style="text;strokeColor=none;fillColor=none;align=left;verticalAlign=top;spacingLeft=4;spacingRight=4;overflow=hidden;rotatable=0;points=[[0,0.5],[1,0.5]];portConstraint=eastwest;whiteSpace=wrap;html=1;" parent="FjhUDqmSHluBk98gDx1N-67" vertex="1">
          <mxGeometry y="58" width="160" height="32" as="geometry" />
        </mxCell>
        <mxCell id="FjhUDqmSHluBk98gDx1N-71" value="Pix" style="swimlane;fontStyle=1;align=center;verticalAlign=top;childLayout=stackLayout;horizontal=1;startSize=26;horizontalStack=0;resizeParent=1;resizeParentMax=0;resizeLast=0;collapsible=1;marginBottom=0;whiteSpace=wrap;html=1;" parent="1" vertex="1">
          <mxGeometry x="1755" y="900" width="160" height="90" as="geometry" />
        </mxCell>
        <mxCell id="FjhUDqmSHluBk98gDx1N-72" value="+ enderecoWallet : String" style="text;strokeColor=none;fillColor=none;align=left;verticalAlign=top;spacingLeft=4;spacingRight=4;overflow=hidden;rotatable=0;points=[[0,0.5],[1,0.5]];portConstraint=eastwest;whiteSpace=wrap;html=1;" parent="FjhUDqmSHluBk98gDx1N-71" vertex="1">
          <mxGeometry y="26" width="160" height="24" as="geometry" />
        </mxCell>
        <mxCell id="FjhUDqmSHluBk98gDx1N-73" value="" style="line;strokeWidth=1;fillColor=none;align=left;verticalAlign=middle;spacingTop=-1;spacingLeft=3;spacingRight=3;rotatable=0;labelPosition=right;points=[];portConstraint=eastwest;strokeColor=inherit;" parent="FjhUDqmSHluBk98gDx1N-71" vertex="1">
          <mxGeometry y="50" width="160" height="8" as="geometry" />
        </mxCell>
        <mxCell id="FjhUDqmSHluBk98gDx1N-74" value="+ toString() : String" style="text;strokeColor=none;fillColor=none;align=left;verticalAlign=top;spacingLeft=4;spacingRight=4;overflow=hidden;rotatable=0;points=[[0,0.5],[1,0.5]];portConstraint=eastwest;whiteSpace=wrap;html=1;" parent="FjhUDqmSHluBk98gDx1N-71" vertex="1">
          <mxGeometry y="58" width="160" height="32" as="geometry" />
        </mxCell>
        <mxCell id="FjhUDqmSHluBk98gDx1N-75" value="Pagamento" style="swimlane;fontStyle=1;align=center;verticalAlign=top;childLayout=stackLayout;horizontal=1;startSize=26;horizontalStack=0;resizeParent=1;resizeParentMax=0;resizeLast=0;collapsible=1;marginBottom=0;whiteSpace=wrap;html=1;" parent="1" vertex="1">
          <mxGeometry x="1585" y="750" width="160" height="140" as="geometry" />
        </mxCell>
        <mxCell id="FjhUDqmSHluBk98gDx1N-76" value="+ valor : double&lt;div&gt;+ metodo : String&lt;/div&gt;" style="text;strokeColor=none;fillColor=none;align=left;verticalAlign=top;spacingLeft=4;spacingRight=4;overflow=hidden;rotatable=0;points=[[0,0.5],[1,0.5]];portConstraint=eastwest;whiteSpace=wrap;html=1;" parent="FjhUDqmSHluBk98gDx1N-75" vertex="1">
          <mxGeometry y="26" width="160" height="44" as="geometry" />
        </mxCell>
        <mxCell id="FjhUDqmSHluBk98gDx1N-77" value="" style="line;strokeWidth=1;fillColor=none;align=left;verticalAlign=middle;spacingTop=-1;spacingLeft=3;spacingRight=3;rotatable=0;labelPosition=right;points=[];portConstraint=eastwest;strokeColor=inherit;" parent="FjhUDqmSHluBk98gDx1N-75" vertex="1">
          <mxGeometry y="70" width="160" height="8" as="geometry" />
        </mxCell>
        <mxCell id="FjhUDqmSHluBk98gDx1N-78" value="+ toString() : String&lt;div&gt;+ realizarPagamento() : void&lt;/div&gt;" style="text;strokeColor=none;fillColor=none;align=left;verticalAlign=top;spacingLeft=4;spacingRight=4;overflow=hidden;rotatable=0;points=[[0,0.5],[1,0.5]];portConstraint=eastwest;whiteSpace=wrap;html=1;" parent="FjhUDqmSHluBk98gDx1N-75" vertex="1">
          <mxGeometry y="78" width="160" height="62" as="geometry" />
        </mxCell>
        <mxCell id="FjhUDqmSHluBk98gDx1N-84" value="" style="endArrow=block;endSize=16;endFill=0;html=1;rounded=0;entryX=0.003;entryY=0.681;entryDx=0;entryDy=0;entryPerimeter=0;exitX=0.47;exitY=1.005;exitDx=0;exitDy=0;exitPerimeter=0;" parent="1" source="FjhUDqmSHluBk98gDx1N-46" target="FjhUDqmSHluBk98gDx1N-76" edge="1">
          <mxGeometry width="160" relative="1" as="geometry">
            <mxPoint x="1495" y="760" as="sourcePoint" />
            <mxPoint x="1545" y="810" as="targetPoint" />
          </mxGeometry>
        </mxCell>
        <mxCell id="FjhUDqmSHluBk98gDx1N-87" value="" style="endArrow=block;endSize=16;endFill=0;html=1;rounded=0;exitX=0.5;exitY=0;exitDx=0;exitDy=0;entryX=0;entryY=0.5;entryDx=0;entryDy=0;" parent="1" source="FjhUDqmSHluBk98gDx1N-67" target="FjhUDqmSHluBk98gDx1N-78" edge="1">
          <mxGeometry width="160" relative="1" as="geometry">
            <mxPoint x="1465" y="840" as="sourcePoint" />
            <mxPoint x="1571" y="897" as="targetPoint" />
          </mxGeometry>
        </mxCell>
        <mxCell id="FjhUDqmSHluBk98gDx1N-88" value="" style="endArrow=block;endSize=16;endFill=0;html=1;rounded=0;exitX=0.482;exitY=0.981;exitDx=0;exitDy=0;exitPerimeter=0;entryX=1;entryY=0.5;entryDx=0;entryDy=0;" parent="1" source="FjhUDqmSHluBk98gDx1N-54" target="FjhUDqmSHluBk98gDx1N-76" edge="1">
          <mxGeometry width="160" relative="1" as="geometry">
            <mxPoint x="1815" y="770" as="sourcePoint" />
            <mxPoint x="1921" y="827" as="targetPoint" />
          </mxGeometry>
        </mxCell>
        <mxCell id="FjhUDqmSHluBk98gDx1N-89" value="" style="endArrow=block;endSize=16;endFill=0;html=1;rounded=0;exitX=0.5;exitY=0;exitDx=0;exitDy=0;entryX=1;entryY=0.5;entryDx=0;entryDy=0;" parent="1" source="FjhUDqmSHluBk98gDx1N-71" target="FjhUDqmSHluBk98gDx1N-78" edge="1">
          <mxGeometry width="160" relative="1" as="geometry">
            <mxPoint x="1815" y="860" as="sourcePoint" />
            <mxPoint x="1921" y="917" as="targetPoint" />
          </mxGeometry>
        </mxCell>
        <mxCell id="FjhUDqmSHluBk98gDx1N-90" value="" style="endArrow=block;endSize=16;endFill=0;html=1;rounded=0;exitX=1;exitY=0.5;exitDx=0;exitDy=0;entryX=0;entryY=0.5;entryDx=0;entryDy=0;" parent="1" source="FjhUDqmSHluBk98gDx1N-26" target="FjhUDqmSHluBk98gDx1N-18" edge="1">
          <mxGeometry width="160" relative="1" as="geometry">
            <mxPoint x="1560" y="342.7" as="sourcePoint" />
            <mxPoint x="1720" y="342.7" as="targetPoint" />
          </mxGeometry>
        </mxCell>
        <mxCell id="FjhUDqmSHluBk98gDx1N-91" value="" style="endArrow=block;endSize=16;endFill=0;html=1;rounded=0;exitX=0;exitY=0.5;exitDx=0;exitDy=0;entryX=1;entryY=0.5;entryDx=0;entryDy=0;" parent="1" source="FjhUDqmSHluBk98gDx1N-30" target="FjhUDqmSHluBk98gDx1N-18" edge="1">
          <mxGeometry width="160" relative="1" as="geometry">
            <mxPoint x="1750" y="363" as="sourcePoint" />
            <mxPoint x="1790" y="400" as="targetPoint" />
          </mxGeometry>
        </mxCell>
        <mxCell id="FjhUDqmSHluBk98gDx1N-92" value="" style="endArrow=block;endSize=16;endFill=0;html=1;rounded=0;exitX=0.5;exitY=1;exitDx=0;exitDy=0;entryX=0.5;entryY=0;entryDx=0;entryDy=0;" parent="1" source="FjhUDqmSHluBk98gDx1N-21" target="FjhUDqmSHluBk98gDx1N-17" edge="1">
          <mxGeometry width="160" relative="1" as="geometry">
            <mxPoint x="1650" y="303" as="sourcePoint" />
            <mxPoint x="1690" y="340" as="targetPoint" />
          </mxGeometry>
        </mxCell>
        <mxCell id="FjhUDqmSHluBk98gDx1N-101" value="" style="endArrow=open;endFill=1;endSize=12;html=1;rounded=0;exitX=0;exitY=0.5;exitDx=0;exitDy=0;entryX=1;entryY=0.5;entryDx=0;entryDy=0;" parent="1" source="FjhUDqmSHluBk98gDx1N-26" target="FjhUDqmSHluBk98gDx1N-14" edge="1">
          <mxGeometry width="160" relative="1" as="geometry">
            <mxPoint x="1620" y="353" as="sourcePoint" />
            <mxPoint x="1780" y="353" as="targetPoint" />
          </mxGeometry>
        </mxCell>
        <mxCell id="FjhUDqmSHluBk98gDx1N-102" value="" style="endArrow=open;endFill=1;endSize=12;html=1;rounded=0;exitX=0;exitY=0.5;exitDx=0;exitDy=0;entryX=1.002;entryY=0.299;entryDx=0;entryDy=0;entryPerimeter=0;" parent="1" source="FjhUDqmSHluBk98gDx1N-22" target="FjhUDqmSHluBk98gDx1N-14" edge="1">
          <mxGeometry width="160" relative="1" as="geometry">
            <mxPoint x="1620" y="353" as="sourcePoint" />
            <mxPoint x="1780" y="353" as="targetPoint" />
          </mxGeometry>
        </mxCell>
        <mxCell id="FjhUDqmSHluBk98gDx1N-103" value="" style="endArrow=open;endFill=1;endSize=12;html=1;rounded=0;exitX=1;exitY=0.5;exitDx=0;exitDy=0;entryX=0;entryY=0.5;entryDx=0;entryDy=0;" parent="1" source="FjhUDqmSHluBk98gDx1N-22" target="9YLRcOosvr0aKqjTtZsJ-15" edge="1">
          <mxGeometry width="160" relative="1" as="geometry">
            <mxPoint x="1620" y="353" as="sourcePoint" />
            <mxPoint x="1780" y="353" as="targetPoint" />
          </mxGeometry>
        </mxCell>
        <mxCell id="FjhUDqmSHluBk98gDx1N-104" value="" style="endArrow=open;endFill=1;endSize=12;html=1;rounded=0;exitX=1;exitY=0.5;exitDx=0;exitDy=0;entryX=0;entryY=0.5;entryDx=0;entryDy=0;" parent="1" source="FjhUDqmSHluBk98gDx1N-22" target="9YLRcOosvr0aKqjTtZsJ-39" edge="1">
          <mxGeometry width="160" relative="1" as="geometry">
            <mxPoint x="1620" y="353" as="sourcePoint" />
            <mxPoint x="1780" y="353" as="targetPoint" />
            <Array as="points">
              <mxPoint x="1970" y="273" />
            </Array>
          </mxGeometry>
        </mxCell>
        <mxCell id="FjhUDqmSHluBk98gDx1N-105" value="" style="endArrow=open;endFill=1;endSize=12;html=1;rounded=0;exitX=0.477;exitY=1.035;exitDx=0;exitDy=0;exitPerimeter=0;entryX=0.002;entryY=0.711;entryDx=0;entryDy=0;entryPerimeter=0;" parent="1" source="FjhUDqmSHluBk98gDx1N-28" target="9YLRcOosvr0aKqjTtZsJ-39" edge="1">
          <mxGeometry width="160" relative="1" as="geometry">
            <mxPoint x="1620" y="463" as="sourcePoint" />
            <mxPoint x="1780" y="463" as="targetPoint" />
            <Array as="points">
              <mxPoint x="1930" y="523" />
            </Array>
          </mxGeometry>
        </mxCell>
        <mxCell id="FjhUDqmSHluBk98gDx1N-106" value="" style="endArrow=open;endFill=1;endSize=12;html=1;rounded=0;exitX=0;exitY=0.5;exitDx=0;exitDy=0;entryX=0.997;entryY=1.033;entryDx=0;entryDy=0;entryPerimeter=0;" parent="1" source="FjhUDqmSHluBk98gDx1N-30" target="FjhUDqmSHluBk98gDx1N-14" edge="1">
          <mxGeometry width="160" relative="1" as="geometry">
            <mxPoint x="1620" y="353" as="sourcePoint" />
            <mxPoint x="1780" y="353" as="targetPoint" />
          </mxGeometry>
        </mxCell>
        <mxCell id="FjhUDqmSHluBk98gDx1N-107" value="" style="endArrow=open;endFill=1;endSize=12;html=1;rounded=0;exitX=1;exitY=0.5;exitDx=0;exitDy=0;entryX=0;entryY=0.5;entryDx=0;entryDy=0;" parent="1" source="FjhUDqmSHluBk98gDx1N-30" target="9YLRcOosvr0aKqjTtZsJ-15" edge="1">
          <mxGeometry width="160" relative="1" as="geometry">
            <mxPoint x="1850" y="393" as="sourcePoint" />
            <mxPoint x="2010" y="393" as="targetPoint" />
          </mxGeometry>
        </mxCell>
        <mxCell id="FjhUDqmSHluBk98gDx1N-108" value="" style="endArrow=open;endFill=1;endSize=12;html=1;rounded=0;exitX=1;exitY=0.5;exitDx=0;exitDy=0;entryX=0.005;entryY=0.647;entryDx=0;entryDy=0;entryPerimeter=0;" parent="1" source="FjhUDqmSHluBk98gDx1N-30" edge="1" target="9YLRcOosvr0aKqjTtZsJ-39">
          <mxGeometry width="160" relative="1" as="geometry">
            <mxPoint x="1850" y="393" as="sourcePoint" />
            <mxPoint x="1990" y="330" as="targetPoint" />
          </mxGeometry>
        </mxCell>
        <mxCell id="FjhUDqmSHluBk98gDx1N-109" value="" style="endArrow=open;endFill=1;endSize=12;html=1;rounded=0;exitX=1;exitY=0.5;exitDx=0;exitDy=0;entryX=0;entryY=0.5;entryDx=0;entryDy=0;" parent="1" source="FjhUDqmSHluBk98gDx1N-30" target="FjhUDqmSHluBk98gDx1N-38" edge="1">
          <mxGeometry width="160" relative="1" as="geometry">
            <mxPoint x="1990" y="533" as="sourcePoint" />
            <mxPoint x="2150" y="533" as="targetPoint" />
            <Array as="points">
              <mxPoint x="1970" y="663" />
            </Array>
          </mxGeometry>
        </mxCell>
        <mxCell id="FjhUDqmSHluBk98gDx1N-110" value="" style="endArrow=block;endSize=16;endFill=0;html=1;rounded=0;exitX=0;exitY=0.5;exitDx=0;exitDy=0;entryX=1;entryY=0.5;entryDx=0;entryDy=0;" parent="1" source="9YLRcOosvr0aKqjTtZsJ-2" target="9YLRcOosvr0aKqjTtZsJ-26" edge="1">
          <mxGeometry width="160" relative="1" as="geometry">
            <mxPoint x="2420" y="363" as="sourcePoint" />
            <mxPoint x="2580" y="363" as="targetPoint" />
          </mxGeometry>
        </mxCell>
        <mxCell id="FjhUDqmSHluBk98gDx1N-111" value="" style="endArrow=block;endSize=16;endFill=0;html=1;rounded=0;exitX=0;exitY=0.5;exitDx=0;exitDy=0;entryX=1;entryY=0.5;entryDx=0;entryDy=0;" parent="1" source="9YLRcOosvr0aKqjTtZsJ-6" target="9YLRcOosvr0aKqjTtZsJ-35" edge="1">
          <mxGeometry width="160" relative="1" as="geometry">
            <mxPoint x="2530" y="333" as="sourcePoint" />
            <mxPoint x="2690" y="333" as="targetPoint" />
          </mxGeometry>
        </mxCell>
        <mxCell id="FjhUDqmSHluBk98gDx1N-112" value="" style="endArrow=block;endSize=16;endFill=0;html=1;rounded=0;exitX=0;exitY=0.5;exitDx=0;exitDy=0;entryX=1;entryY=0.5;entryDx=0;entryDy=0;" parent="1" source="9YLRcOosvr0aKqjTtZsJ-11" target="9YLRcOosvr0aKqjTtZsJ-37" edge="1">
          <mxGeometry width="160" relative="1" as="geometry">
            <mxPoint x="2500" y="363" as="sourcePoint" />
            <mxPoint x="2420" y="409" as="targetPoint" />
          </mxGeometry>
        </mxCell>
        <mxCell id="FjhUDqmSHluBk98gDx1N-113" value="" style="endArrow=open;endFill=1;endSize=12;html=1;rounded=0;exitX=0;exitY=0.5;exitDx=0;exitDy=0;entryX=1;entryY=0.5;entryDx=0;entryDy=0;" parent="1" source="9YLRcOosvr0aKqjTtZsJ-11" target="9YLRcOosvr0aKqjTtZsJ-23" edge="1">
          <mxGeometry width="160" relative="1" as="geometry">
            <mxPoint x="2530" y="413" as="sourcePoint" />
            <mxPoint x="2690" y="413" as="targetPoint" />
          </mxGeometry>
        </mxCell>
        <mxCell id="FjhUDqmSHluBk98gDx1N-114" value="" style="endArrow=open;endFill=1;endSize=12;html=1;rounded=0;exitX=1;exitY=0.5;exitDx=0;exitDy=0;entryX=0;entryY=0.5;entryDx=0;entryDy=0;" parent="1" source="9YLRcOosvr0aKqjTtZsJ-15" target="9YLRcOosvr0aKqjTtZsJ-35" edge="1">
          <mxGeometry width="160" relative="1" as="geometry">
            <mxPoint x="2530" y="333" as="sourcePoint" />
            <mxPoint x="2690" y="333" as="targetPoint" />
          </mxGeometry>
        </mxCell>
        <mxCell id="FjhUDqmSHluBk98gDx1N-115" value="" style="endArrow=open;endFill=1;endSize=12;html=1;rounded=0;exitX=0.5;exitY=0;exitDx=0;exitDy=0;entryX=0.486;entryY=0.997;entryDx=0;entryDy=0;entryPerimeter=0;" parent="1" source="9YLRcOosvr0aKqjTtZsJ-22" target="9YLRcOosvr0aKqjTtZsJ-37" edge="1">
          <mxGeometry width="160" relative="1" as="geometry">
            <mxPoint x="2220" y="410" as="sourcePoint" />
            <mxPoint x="2380" y="410" as="targetPoint" />
          </mxGeometry>
        </mxCell>
        <mxCell id="FjhUDqmSHluBk98gDx1N-116" value="" style="endArrow=block;endSize=16;endFill=0;html=1;rounded=0;exitX=0.5;exitY=1;exitDx=0;exitDy=0;entryX=0.5;entryY=0;entryDx=0;entryDy=0;" parent="1" source="9YLRcOosvr0aKqjTtZsJ-26" target="9YLRcOosvr0aKqjTtZsJ-34" edge="1">
          <mxGeometry width="160" relative="1" as="geometry">
            <mxPoint x="2350" y="200" as="sourcePoint" />
            <mxPoint x="2270" y="246" as="targetPoint" />
          </mxGeometry>
        </mxCell>
        <mxCell id="FjhUDqmSHluBk98gDx1N-117" value="" style="endArrow=block;endSize=16;endFill=0;html=1;rounded=0;exitX=0;exitY=0.5;exitDx=0;exitDy=0;entryX=0.997;entryY=0.881;entryDx=0;entryDy=0;entryPerimeter=0;" parent="1" source="9YLRcOosvr0aKqjTtZsJ-30" target="9YLRcOosvr0aKqjTtZsJ-35" edge="1">
          <mxGeometry width="160" relative="1" as="geometry">
            <mxPoint x="2500" y="320" as="sourcePoint" />
            <mxPoint x="2420" y="366" as="targetPoint" />
          </mxGeometry>
        </mxCell>
        <mxCell id="FjhUDqmSHluBk98gDx1N-118" value="" style="endArrow=open;endFill=1;endSize=12;html=1;rounded=0;exitX=1;exitY=0.5;exitDx=0;exitDy=0;entryX=0;entryY=0.5;entryDx=0;entryDy=0;" parent="1" source="FjhUDqmSHluBk98gDx1N-36" target="9YLRcOosvr0aKqjTtZsJ-37" edge="1">
          <mxGeometry width="160" relative="1" as="geometry">
            <mxPoint x="2290" y="610" as="sourcePoint" />
            <mxPoint x="2450" y="610" as="targetPoint" />
            <Array as="points">
              <mxPoint x="2240" y="480" />
              <mxPoint x="2250" y="350" />
            </Array>
          </mxGeometry>
        </mxCell>
        <mxCell id="FjhUDqmSHluBk98gDx1N-119" value="" style="endArrow=open;endFill=1;endSize=12;html=1;rounded=0;exitX=0;exitY=0.5;exitDx=0;exitDy=0;entryX=1;entryY=0.5;entryDx=0;entryDy=0;" parent="1" source="FjhUDqmSHluBk98gDx1N-40" target="9YLRcOosvr0aKqjTtZsJ-39" edge="1">
          <mxGeometry width="160" relative="1" as="geometry">
            <mxPoint x="2290" y="510" as="sourcePoint" />
            <mxPoint x="2450" y="510" as="targetPoint" />
            <Array as="points">
              <mxPoint x="2290" y="490" />
              <mxPoint x="2290" y="400" />
            </Array>
          </mxGeometry>
        </mxCell>
        <mxCell id="FjhUDqmSHluBk98gDx1N-120" value="" style="endArrow=open;endFill=1;endSize=12;html=1;rounded=0;exitX=0;exitY=0.5;exitDx=0;exitDy=0;entryX=1;entryY=0.5;entryDx=0;entryDy=0;" parent="1" source="FjhUDqmSHluBk98gDx1N-40" target="FjhUDqmSHluBk98gDx1N-38" edge="1">
          <mxGeometry width="160" relative="1" as="geometry">
            <mxPoint x="2290" y="510" as="sourcePoint" />
            <mxPoint x="2450" y="510" as="targetPoint" />
          </mxGeometry>
        </mxCell>
        <mxCell id="FjhUDqmSHluBk98gDx1N-121" value="" style="endArrow=open;endFill=1;endSize=12;html=1;rounded=0;exitX=1;exitY=0.5;exitDx=0;exitDy=0;entryX=0.01;entryY=0.233;entryDx=0;entryDy=0;entryPerimeter=0;" parent="1" source="FjhUDqmSHluBk98gDx1N-6" target="9YLRcOosvr0aKqjTtZsJ-15" edge="1">
          <mxGeometry width="160" relative="1" as="geometry">
            <mxPoint x="1590" y="570" as="sourcePoint" />
            <mxPoint x="1340" y="100" as="targetPoint" />
            <Array as="points">
              <mxPoint x="1340" y="520" />
              <mxPoint x="1370" y="110" />
            </Array>
          </mxGeometry>
        </mxCell>
        <mxCell id="FjhUDqmSHluBk98gDx1N-122" value="" style="endArrow=open;endFill=1;endSize=12;html=1;rounded=0;exitX=1;exitY=0.5;exitDx=0;exitDy=0;entryX=0.086;entryY=0.997;entryDx=0;entryDy=0;entryPerimeter=0;" parent="1" source="FjhUDqmSHluBk98gDx1N-6" target="9YLRcOosvr0aKqjTtZsJ-37" edge="1">
          <mxGeometry width="160" relative="1" as="geometry">
            <mxPoint x="1730" y="330" as="sourcePoint" />
            <mxPoint x="2300" y="550" as="targetPoint" />
            <Array as="points">
              <mxPoint x="2290" y="550" />
            </Array>
          </mxGeometry>
        </mxCell>
        <mxCell id="FjhUDqmSHluBk98gDx1N-123" value="" style="endArrow=open;endFill=1;endSize=12;html=1;rounded=0;exitX=1;exitY=0.5;exitDx=0;exitDy=0;entryX=0;entryY=0.5;entryDx=0;entryDy=0;" parent="1" source="FjhUDqmSHluBk98gDx1N-16" target="9YLRcOosvr0aKqjTtZsJ-41" edge="1">
          <mxGeometry width="160" relative="1" as="geometry">
            <mxPoint x="1550" y="430" as="sourcePoint" />
            <mxPoint x="1320" y="580" as="targetPoint" />
            <Array as="points">
              <mxPoint x="1430" y="590" />
            </Array>
          </mxGeometry>
        </mxCell>
        <mxCell id="FjhUDqmSHluBk98gDx1N-124" value="" style="endArrow=open;endFill=1;endSize=12;html=1;rounded=0;exitX=0.457;exitY=1.017;exitDx=0;exitDy=0;exitPerimeter=0;entryX=0;entryY=1;entryDx=0;entryDy=0;" parent="1" source="FjhUDqmSHluBk98gDx1N-4" target="9YLRcOosvr0aKqjTtZsJ-22" edge="1">
          <mxGeometry width="160" relative="1" as="geometry">
            <mxPoint x="1350" y="480" as="sourcePoint" />
            <mxPoint x="2120" y="550" as="targetPoint" />
            <Array as="points">
              <mxPoint x="1100" y="660" />
              <mxPoint x="2100" y="550" />
            </Array>
          </mxGeometry>
        </mxCell>
      </root>
    </mxGraphModel>
  </diagram>
</mxfile>
